<svg width="1031" height="447" viewBox="0 0 1031 447" fill="none" xmlns="http://www.w3.org/2000/svg">
<path d="M375.994 247.247C373.876 254.348 372.717 261.925 369.47 268.465C357.228 293.126 336.834 305.268 309.336 305.457C304.768 305.488 302.006 303.105 302.034 299.503C302.062 295.918 304.873 293.523 309.401 293.542C327.614 293.618 342.537 286.759 353.511 272.158C375.509 242.888 361.106 200.259 325.944 190.161C319.47 188.302 318.797 187.78 318.486 181.188C317.596 162.318 312.384 144.815 301.833 129.127C285.071 104.206 261.947 88.312 232.081 84.432C187.491 78.64 153.131 95.768 129.119 133.716C125.917 138.777 124.193 139.449 118.514 137.41C95.59 129.177 71.235 142.307 66.019 165.984C64.82 171.426 62.426 174.197 56.759 175.546C30.307 181.845 10.778 208.59 11.958 235.016C13.345 266.068 36.39 289.31 63.367 292.681C72.056 293.767 80.94 293.333 89.737 293.505C95.942 293.626 97.937 295.446 97.944 301.586C97.973 327.406 97.975 353.226 97.943 379.046C97.936 385.039 96.007 386.895 90.008 386.937C85.481 386.969 80.948 387.072 76.427 386.892C74.064 386.797 73.125 387.671 72.268 389.859C68.179 400.291 60.459 406.243 49.206 406.77C38.461 407.274 30.288 402.49 25.136 393.056C17.96 379.915 23.735 363.539 37.558 357.253C50.816 351.225 66.905 357.796 72.026 371.592C73.088 374.453 74.463 375.316 77.296 375.065C79.962 374.828 82.665 375.014 85.654 375.014C85.654 351.949 85.654 329.021 85.654 305.483C83.741 305.483 81.722 305.451 79.704 305.488C68.647 305.69 57.691 305.192 47.236 301.012C21.12 290.571 5.688 271.463 0.78 243.8C0.591 242.734 0.263 241.692 0 240.638C0 235.987 0 231.336 0 226.685C0.24 225.748 0.548 224.823 0.709 223.873C5.659 194.633 22.038 174.929 50.007 165.016C52.639 164.083 54.166 163.026 55.006 160.108C62.63 133.639 89.562 118.038 116.418 124.465C119.238 125.14 120.655 124.549 122.291 122.096C138.746 97.427 161.475 81.504 190.209 74.292C196.222 72.783 202.437 72.076 208.559 71C213.944 71 219.33 71 224.715 71C227.716 71.465 230.714 71.952 233.719 72.393C259.434 76.163 281.237 87.582 299.108 106.339C317.263 125.394 327.661 148.092 329.888 174.395C330.159 177.598 331.191 179.387 334.508 180.698C354.252 188.504 367.275 202.712 373.433 223.069C374.517 226.653 375.151 230.372 375.994 234.029C375.994 238.435 375.994 242.841 375.994 247.247ZM47.787 394.904C55.6 394.994 61.834 388.901 61.897 381.114C61.959 373.373 55.713 367.015 48.028 366.998C40.404 366.981 33.958 373.444 34.009 381.055C34.06 388.62 40.225 394.817 47.787 394.904Z" fill="#7DAAD2"/>
<path d="M152.014 446.994C145.905 445.089 140.209 442.626 135.976 437.43C124.891 423.822 130.111 403.179 146.495 396.992C149.344 395.916 150.004 394.542 149.993 391.722C149.89 364.437 149.931 337.151 149.931 309.866C149.931 308.551 149.931 307.236 149.931 305.483C144.322 305.483 139.092 305.484 133.863 305.483C128.235 305.481 122.605 305.548 116.978 305.452C112.62 305.378 110.095 303.084 110.121 299.494C110.146 295.924 112.742 293.569 117.054 293.547C129.656 293.484 142.26 293.476 154.862 293.547C159.938 293.576 162.015 295.95 162.032 301.604C162.074 316.164 162.047 330.725 162.048 345.285C162.048 361.069 162.076 376.853 162.015 392.637C162.007 394.711 162.444 395.835 164.668 396.637C175.319 400.481 182.459 410.869 182.004 421.395C181.483 433.451 173.754 443.108 162.16 446.195C161.222 446.445 160.292 446.727 159.358 446.994C156.91 446.994 154.462 446.994 152.014 446.994ZM155.826 407.096C148.085 407.189 141.837 413.607 142.037 421.259C142.235 428.821 148.487 434.976 155.985 434.992C163.631 435.008 169.962 428.613 169.92 420.916C169.879 413.154 163.604 407.002 155.826 407.096Z" fill="#7DAAD2"/>
<path d="M216.637 446.994C208.324 445.056 201.443 441.127 197.242 433.317C189.749 419.387 196.106 402.281 210.972 396.745C212.887 396.032 214.013 395.416 214.005 393.01C213.911 364.626 213.943 336.241 213.931 307.856C213.931 307.257 213.802 306.659 213.666 305.483C212.346 305.483 211.058 305.483 209.771 305.483C200.228 305.481 190.685 305.466 181.142 305.484C178.068 305.49 175.587 304.555 174.44 301.448C172.96 297.44 175.98 293.611 180.886 293.556C190.183 293.451 199.483 293.523 208.781 293.522C212.207 293.522 215.634 293.452 219.058 293.544C223.539 293.665 225.748 295.856 226.044 300.334C226.116 301.431 226.064 302.536 226.064 303.637C226.065 333.123 226.065 362.609 226.062 392.094C226.062 394.026 225.804 395.638 228.482 396.591C239.442 400.494 246.383 410.682 245.958 421.577C245.502 433.272 238.118 442.641 226.687 446.046C225.772 446.318 224.883 446.675 223.982 446.993C221.533 446.994 219.085 446.994 216.637 446.994ZM220.532 407.116C212.704 406.837 206.354 412.751 206.103 420.555C205.855 428.28 211.89 434.704 219.649 434.973C227.218 435.235 233.76 428.963 233.959 421.255C234.152 413.741 228.117 407.386 220.532 407.116Z" fill="#7DAAD2"/>
<path d="M278.039 305.483C267.32 305.483 257.296 305.487 247.272 305.482C240.977 305.479 238.09 303.635 238.04 299.605C237.99 295.551 241.014 293.525 247.133 293.523C258.634 293.52 270.134 293.512 281.635 293.527C287.983 293.535 290.029 295.549 290.033 301.845C290.047 324.724 290.039 347.603 290.039 370.482C290.039 371.816 290.039 373.151 290.039 374.998C293.958 374.998 297.713 375.167 301.429 374.866C302.244 374.8 303.201 373.164 303.62 372.071C308.01 360.626 318.713 354.063 331.194 355.273C342.238 356.344 351.684 365.472 353.551 376.879C355.727 390.171 347.654 402.411 334.266 406.118C322.015 409.511 308.507 402.648 303.962 390.409C302.912 387.581 301.567 386.692 298.694 386.884C294.918 387.136 291.113 386.949 287.32 386.945C279.5 386.938 278.042 385.516 278.04 377.814C278.033 355.302 278.038 332.79 278.037 310.279C278.039 308.843 278.039 307.409 278.039 305.483ZM327.959 394.911C335.694 394.922 342.025 388.615 341.985 380.939C341.946 373.301 335.469 366.913 327.852 367C320.293 367.087 314.166 373.265 314.103 380.864C314.038 388.662 320.191 394.9 327.959 394.911Z" fill="#7DAAD2"/>
<path d="M220.811 103.184C244.216 104.627 263.595 114.218 279.009 131.844C281.893 135.141 281.896 138.505 279.196 140.954C276.636 143.276 272.996 143.005 270.147 139.805C262.288 130.977 253.263 123.637 241.993 119.945C234.759 117.575 227.049 116.648 219.543 115.124C218.235 114.859 216.836 115.004 215.551 114.677C212.542 113.91 210.946 111.722 211.114 108.748C211.29 105.63 213.098 103.519 216.416 103.208C217.869 103.07 219.346 103.184 220.811 103.184Z" fill="#7DAAD2"/>
<path d="M298.274 179.987C298.339 181.085 298.477 182.184 298.457 183.28C298.388 187.03 296.171 189.603 292.885 189.823C289.749 190.033 287.032 187.62 286.563 183.968C286.253 181.552 286.513 179.041 286.026 176.673C284.922 171.312 283.63 165.982 282.193 160.699C280.917 156.006 282.023 152.806 285.673 151.682C289.201 150.595 292.321 152.325 293.542 156.769C295.633 164.377 297.322 172.095 299.181 179.767C298.878 179.841 298.576 179.914 298.274 179.987Z" fill="#7DAAD2"/>
<path d="M511.504 278C491.056 278 476.176 273.392 466.864 264.176C457.648 254.864 453.04 239.984 453.04 219.536V154.16C453.04 133.52 457.648 118.64 466.864 109.52C476.176 100.304 490.96 95.696 511.216 95.696H546.064C563.632 95.696 576.592 99.344 584.944 106.64C593.296 113.936 597.808 125.744 598.48 142.064C598.672 144.08 598.24 145.664 597.184 146.816C596.224 147.872 594.736 148.4 592.72 148.4C588.784 148.4 586.672 146.384 586.384 142.352C585.808 129.392 582.448 120.416 576.304 115.424C570.256 110.336 560.176 107.792 546.064 107.792H511.216C499.888 107.792 490.864 109.28 484.144 112.256C477.424 115.232 472.576 120.128 469.6 126.944C466.624 133.664 465.136 142.736 465.136 154.16V219.536C465.136 230.864 466.624 239.936 469.6 246.752C472.672 253.472 477.568 258.368 484.288 261.44C491.104 264.416 500.176 265.904 511.504 265.904H546.064C560.176 265.904 570.256 263.408 576.304 258.416C582.448 253.328 585.808 244.304 586.384 231.344C586.672 227.312 588.784 225.296 592.72 225.296C594.736 225.296 596.224 225.872 597.184 227.024C598.24 228.08 598.672 229.616 598.48 231.632C597.808 247.856 593.296 259.664 584.944 267.056C576.592 274.352 563.632 278 546.064 278H511.504ZM682.943 278C669.695 278 659.999 274.976 653.855 268.928C647.711 262.88 644.639 253.328 644.639 240.272V85.328C644.639 81.296 646.655 79.28 650.687 79.28C654.719 79.28 656.735 81.296 656.735 85.328V240.272C656.735 250.064 658.607 256.784 662.351 260.432C666.095 264.08 672.863 265.904 682.655 265.904C686.879 265.904 688.991 267.92 688.991 271.952C688.991 275.984 686.975 278 682.943 278ZM756.925 278C742.429 278 731.821 274.688 725.101 268.064C718.477 261.344 715.165 250.736 715.165 236.24C715.165 221.648 718.525 210.992 725.245 204.272C731.965 197.552 742.525 194.192 756.925 194.192H824.029C823.933 180.656 821.005 171.152 815.245 165.68C809.485 160.112 799.645 157.328 785.725 157.328H769.021C755.965 157.328 746.461 158.864 740.509 161.936C734.557 164.912 731.005 170 729.853 177.2C729.565 179.024 728.941 180.464 727.981 181.52C727.117 182.48 725.725 182.96 723.805 182.96C721.789 182.96 720.253 182.432 719.197 181.376C718.141 180.224 717.661 178.64 717.757 176.624C718.525 165.68 723.133 157.712 731.581 152.72C740.125 147.728 752.605 145.232 769.021 145.232H785.725C803.293 145.232 816.061 149.264 824.029 157.328C832.093 165.296 836.125 178.064 836.125 195.632V271.952C836.125 275.984 834.109 278 830.077 278C826.045 278 824.029 275.984 824.029 271.952V254.96C815.197 270.32 798.205 278 773.053 278H756.925ZM756.925 265.904H773.053C783.133 265.904 791.821 264.752 799.117 262.448C806.509 260.144 812.317 256.496 816.541 251.504C820.861 246.512 823.357 239.984 824.029 231.92V206.288H756.925C745.885 206.288 738.157 208.496 733.741 212.912C729.421 217.232 727.261 225.008 727.261 236.24C727.261 247.28 729.421 255.008 733.741 259.424C738.157 263.744 745.885 265.904 756.925 265.904ZM998.285 145.232C1002.32 145.232 1004.33 147.248 1004.33 151.28V271.952C1004.33 275.984 1002.32 278 998.285 278C994.253 278 992.237 275.984 992.237 271.952V255.248C983.501 270.416 966.509 278 941.261 278H933.197C915.629 278 902.813 274.016 894.749 266.048C886.781 257.984 882.797 245.168 882.797 227.6V151.28C882.797 147.248 884.813 145.232 888.845 145.232C892.877 145.232 894.893 147.248 894.893 151.28V227.6C894.893 241.712 897.725 251.648 903.389 257.408C909.149 263.072 919.085 265.904 933.197 265.904H941.261C957.197 265.904 969.437 263.216 977.981 257.84C986.525 252.368 991.277 243.92 992.237 232.496V151.28C992.237 147.248 994.253 145.232 998.285 145.232Z" fill="#11395F"/>
</svg>
